<svg xmlns="http://www.w3.org/2000/svg" xml:space="preserve" style="enable-background:new 0 0 122.88 122.33" viewBox="0 0 122.88 122.33"><path d="M103.64 56.11c.04.08.06.16.09.25.55 2.22.5 4.53-.1 6.69a12.97 12.97 0 0 1-3.35 5.76l-42.64 42.64a13.765 13.765 0 0 1-9.75 4.03c-3.53 0-7.07-1.34-9.75-4.03l-6.08-6.08-13.86 13.85a10.644 10.644 0 0 1-7.54 3.11c-2.74 0-5.47-1.04-7.54-3.11l-.01-.01c-2.07-2.07-3.1-4.8-3.1-7.54 0-2.73 1.04-5.47 3.11-7.54l13.84-13.84-5.79-5.79a13.802 13.802 0 0 1-4.04-9.78c0-3.55 1.35-7.09 4.04-9.78l42.42-42.42c1.74-1.74 3.87-2.91 6.12-3.48 2.33-.6 4.78-.57 7.08.09l.09.03 16-16 .95-.95.14-.14A6.94 6.94 0 0 1 88.94 0c1.8 0 3.6.68 4.97 2.05l26.92 26.92a7.027 7.027 0 0 1 2.05 4.97c0 1.8-.68 3.61-2.05 4.97L119.74 40c-.24.24-.49.46-.75.67l.12-.03-15.47 15.47zM80.39 9.87 61.34 28.93a5.603 5.603 0 0 0-1.64 3.97c0 1.44.55 2.87 1.64 3.97l24.68 24.68c1.09 1.09 2.53 1.64 3.97 1.64s2.88-.55 3.97-1.64l6.83-6.83 12.22-12.22a8.646 8.646 0 0 1-5.46-2.49L82.88 15.32a8.598 8.598 0 0 1-2.49-5.45zm10.8-3.15 24.9 24.9a3.235 3.235 0 0 1 0 4.57 3.235 3.235 0 0 1-4.57 0l-24.9-24.9a3.235 3.235 0 0 1 0-4.57 3.235 3.235 0 0 1 4.57 0zm27.52 24.37L91.79 4.17C91.01 3.39 89.98 3 88.94 3s-2.07.39-2.85 1.17L85 5.27c-1.09 1.09-1.64 2.53-1.64 3.97s.55 2.87 1.64 3.97l24.68 24.68a5.603 5.603 0 0 0 3.97 1.64c1.44 0 2.88-.55 3.97-1.64l1.09-1.09c.79-.79 1.18-1.82 1.18-2.85 0-1.04-.39-2.07-1.18-2.86zm-68.09-1.37L13.29 67.05a10.808 10.808 0 0 0-3.16 7.67c0 2.78 1.05 5.56 3.16 7.67l26.96 26.96c2.1 2.1 4.87 3.15 7.63 3.15 2.77 0 5.54-1.05 7.63-3.15L92.26 72.6c-3.13.77-6.58-.05-9.02-2.49L52.82 39.67c-2.68-2.68-3.41-6.59-2.2-9.95zm-20.98 73.83L18.79 92.69 5.23 106.25A7.65 7.65 0 0 0 3 111.68c0 1.97.75 3.94 2.23 5.43a7.65 7.65 0 0 0 5.43 2.23c1.97 0 3.94-.74 5.43-2.23l13.55-13.56z"/></svg>